<?xml version="1.0" encoding="UTF-8"?>
<svg id="Layer_1" xmlns="http://www.w3.org/2000/svg" version="1.1" viewBox="0 0 281.44 284.67">
  <!-- Generator: Adobe Illustrator 29.5.0, SVG Export Plug-In . SVG Version: 2.1.0 Build 137)  -->
  <defs>
    <style>
      .st0 {
        fill: #010101;
      }

      .st1 {
        fill: #ea5963;
      }

      .st2 {
        stroke: #ea5963;
      }

      .st2, .st3 {
        fill: none;
        stroke-miterlimit: 10;
        stroke-width: 2px;
      }

      .st4 {
        fill: #ec2227;
      }

      .st3 {
        stroke: #4b6bb3;
      }

      .st5 {
        fill: #fff;
      }
    </style>
  </defs>
  <ellipse class="st5" cx="63.71" cy="118.27" rx="15.41" ry="11.42" transform="translate(-69.84 132.78) rotate(-67.89)"/>
  <path class="st1" d="M237.29,102.46c.47.27,2.4,4.31,2.39,5.2-.04,2.48-3.01,3.56-2.82,4.43,1.79,1.67,3.78,5.26,3.24,7.73-.23,1.07-1.67,2.11-1.53,2.84.11.6,2.61,3.15,2.73,5.15s-2.28,4.01-2.14,4.89c.16,1.05,2.57,2.77,2.62,5.12.05,2.68-1.8,3.7-2.43,5.36s2.83,8.6,3.61,10.9c3.99,11.89,7.17,24.01,8.13,36.59,7.4,7.2,20.53-12.18,26.54-9.24,3.68,1.8.61,8.22.14,10.77-1.02,5.6-2.12,10.74-2.7,15.87-.64,5.63-3.08,13.19-5.91,18-2.14,3.64-4.78,3.6-8.13,1.6l-12.72-10.73c-8.24,17.18-20.55,33.16-35.76,44.72-33.19,25.24-87.85,32.23-123.91,9.39-1.09-.69-3.33-2.95-4.02-3.24-1.29-.55-.8,3.5-2.2,3.93l-2.2,1.09-18.64-6.84c-2.8-4.5,1.51-5.08,2.64-7,.52-.88,1.32-4.32,1.03-5.3-4.74-6.41-9.82-12.69-14.22-19.34-5.24-7.93-9.38-14.7-11.67-24.1-7.11-29.1-4.01-60.56,12.04-86.1,6.16,4.19,13.06.94,18.39-3.11,4.35-3.32,6.03-8.15,3.32-13.31-2.41-4.59-10.49-6.61-11.66-.09.42,1.65,6.24-.64,6.5,5.14.32,7.27-10.58,7.89-12.68,2.19-2.28-6.17,5.24-13.94,10.91-15.44,1.86-.49,3.93-.28,5.31-.83,5.58-2.22,12.54-8.9,20.14-11.71,6.89-2.54,12.48-1.97,19.22-3.68,7.62-1.94,14.42-7.45,22.25-5.99,1.92.36,6.33,3.12,7.41,3.22,1.52.14,4.86-.99,6.69-1.1,11.27-.67,28.38,4.9,38.97,9.07,6.6,2.6,16.21,8.72,22.06,10.35,2.17.6,4.95.36,6.98.84,5.28,1.23,8.97,3.04,14.72,3.17,1.71.04,5.89-1.24,7.37-.39v-.02ZM124,88.37c-3.89-.54-7.52.86-9.05,4.63-.64,1.56-1.77,6.9-1.6,8.51.63,5.8,12.05,12.91,17.12,14.76,7,2.57,13.84,3.08,18.22-4.05,1.26-2.06,3.61-9.55,3.12-11.68-1.64-7.13-12.58-14.91-19.98-13.85,1.85,5.19,9.83,5.07,11.16,11.47-2.26,7.41-18.28,6.66-20.7.59-1.6-4.02,1.06-6.67,1.71-10.38h0ZM232.33,114.04c.95-3.94-5.1-2.98-7.8-3.55-2.07-.44-3.15-1.31-4.99-1.99-2.03,6.83,8.38,7.62,12.79,5.54h0ZM88.11,117.01c-8.81,1.38-23.69,12.74-26.48,21.57-1.54,4.88-.14,4.44.9,8.24.7,2.55-.45,5.03,3.18,6.88,4.35,2.22,5.58-.56,8.77-2.26,11.42-6.1,17.61-6.54,30.24-6.59,8.75-.03,18.09-3.04,14.3-13.75s-21.12-15.62-30.9-14.09h-.01ZM227.74,118.11c-.75.22-1.24,1.05-1.8,1.56-.59,1.43,2.4.53,3.76.69,1.63.19,3.07.76,4.07,2.09,4.48-4.12-2.71-5.34-6.03-4.35h0ZM229.43,124.23c-4.62,1.27,3.96,7.93,5.61,2.42-.1-1.19-4.36-2.76-5.61-2.42ZM138.15,190.85c-3.4,4.62,5.53,11.91,8.8,7.41,1.95-2.68-4.45-7.13-6.45-8.71-.45,0-2.08.93-2.35,1.29h0ZM271.33,196.11c.71-.45,3.71-5.41,1.02-5.44-1.55,0-13.11,5.26-13.15,6.99.98,1.19,4.89.53,6.37.24.64-.13,5.5-1.62,5.76-1.78h0ZM78.12,193.56c-3.07-1.94-5.96,4.67-6.06,6.96-.09,2,3.54,4.53,5.3,5.24,2.01-.76,4.23-2.34,4.22-4.75,0-.92-3.12-7.24-3.46-7.46h0ZM270.3,200.79l-13.35.5c-.16,3.94,1.22,9.58,4.51,11.99,1.57,1.15,6.09,3.73,7.53,1.45.9-1.42-1.27-3.3-2.51-3.68-1.31-.4-4.78.35-4.49-1.08.43-.86.58-1.43,1.61-1.72,2.35-.67,4.01.84,5.64-.53.09-2.27-5-1.66-5.01-2.79l6.02-1.5.05-2.64h0ZM209.88,203.62c-6.56,1.02-.14,14.55,5.75,8.03,3.28-3.63-3.72-8.35-5.75-8.03ZM96.8,216.77c4.18,3.87,9.62-2.17,4.32-6.84-4.85-4.27-8.25,3.2-4.32,6.84ZM182.59,218.13c-.25-.44-8.13-5.07-8.63-5.11-5.14-.46-3.42,10.46,3.25,9.39,1.41-.23,6.44-2.43,5.38-4.28ZM266.45,219.19c-3.15-1.07-4.6-4.98-7.81-6.16-.79,1.02,3.92,7.28,4.45,8.71,1.04.74,3.99-1.68,3.36-2.55ZM255.64,215.47c-1.14-1.08-3.01-1.92-2.36.4.41,1.45,2.83,3.32,4.23,3.87.69-.92-1.14-3.58-1.87-4.27h0ZM133.29,217.56c-4.01,2.29-1.78,9.98,3.01,8.67,5.17-1.41.35-7.94-3.01-8.67ZM82.04,226.53c-8.05,2.02-9.91,12.11.37,12.79,9.28.61,2.64-9.21-.37-12.79ZM157.14,243.61c2.31,2.6,13.6,3.05,13.6-.67-.65-2.11-10.43-8.15-11.82-8.16-4.31-.03-3.94,6.4-1.78,8.83ZM207.08,245.29c.98-.81,3-6.24,1.85-7.39-.62-.62-6.38-1.46-7.54-1.42-8.81.32,1.14,12.57,5.69,8.81ZM117.72,246.69c-4.82.68-4.44,8.92-1.5,10.74,1.89,1.17,5.51,1.94,7.64,1.02,1.4-.61,3.38-3.58,2.67-5.15-.19-.42-6.04-6.26-6.46-6.45-.92-.43-1.43-.3-2.35-.17h0ZM99.3,253.41c-1.33-1.36-4.84-1.38-6.53-.36-6.22,3.76,2.07,11.04,7.16,9.12.85-1.87.71-7.39-.63-8.76h0ZM150.65,256.7c-1.57.4-3.45,3.54-3.45,5.25,0,2.55,3.13,6,5.61,6.4,3.42.55,10.37-.21,9.24-4.75-2-.93-9.94-7.27-11.39-6.9h0ZM74.35,262.72c-.48-6.88-6.9-4.63-5.98.93.31,1.91,2.56.86,3.53,1.22,2.43.91,6.16,6.08,5.13-2.03l-2.67-.12h-.01Z"/>
  <path class="st5" d="M124,88.37c-.65,3.72-3.31,6.36-1.71,10.38,2.42,6.08,18.44,6.82,20.7-.59-1.33-6.4-9.31-6.28-11.16-11.47,7.41-1.05,18.34,6.72,19.98,13.85.49,2.13-1.86,9.62-3.12,11.68-4.38,7.13-11.21,6.61-18.22,4.05-5.06-1.86-16.49-8.96-17.12-14.76-.18-1.61.96-6.95,1.6-8.51,1.54-3.77,5.16-5.18,9.05-4.63h0Z"/>
  <path class="st5" d="M270.3,200.79l-.05,2.64-6.02,1.5c.02,1.13,5.11.52,5.01,2.79-1.63,1.37-3.29-.14-5.64.53-1.03.29-1.18.87-1.61,1.72-.29,1.42,3.18.67,4.49,1.08s3.41,2.26,2.51,3.68c-1.44,2.28-5.96-.3-7.53-1.45-3.28-2.41-4.66-8.04-4.51-11.99l13.35-.5h0Z"/>
  <path class="st5" d="M177.82,101.28c1.45-.37,9.39,5.97,11.39,6.9,1.13,4.54-5.82,5.29-9.24,4.75-2.47-.4-5.61-3.85-5.61-6.4,0-1.71,1.88-4.85,3.45-5.25h0Z"/>
  <path class="st5" d="M117.72,246.69c.92-.13,1.44-.26,2.35.17.41.19,6.27,6.03,6.46,6.45.71,1.56-1.27,4.54-2.67,5.15-2.12.92-5.75.15-7.64-1.02-2.94-1.82-3.33-10.07,1.5-10.74h0Z"/>
  <path class="st5" d="M157.14,243.61c-2.16-2.43-2.53-8.86,1.78-8.83,1.39,0,11.17,6.05,11.82,8.16,0,3.72-11.29,3.27-13.6.67Z"/>
  <path class="st5" d="M218.94,163.75c3.01,3.58,9.65,13.4.37,12.79-10.28-.68-8.42-10.77-.37-12.79Z"/>
  <path class="st5" d="M207.08,245.29c-4.55,3.76-14.5-8.5-5.69-8.81,1.17-.04,6.92.8,7.54,1.42,1.16,1.15-.87,6.59-1.85,7.39Z"/>
  <path class="st5" d="M78.12,193.56c.35.22,3.46,6.53,3.46,7.46,0,2.41-2.21,3.98-4.22,4.75-1.76-.71-5.39-3.23-5.3-5.24.1-2.3,2.99-8.91,6.06-6.96h0Z"/>
  <path class="st5" d="M99.3,253.41c1.33,1.37,1.48,6.89.63,8.76-5.09,1.92-13.38-5.36-7.16-9.12,1.69-1.02,5.21-1.01,6.53.36h0Z"/>
  <path class="st5" d="M182.59,218.13c1.06,1.85-3.97,4.05-5.38,4.28-6.67,1.07-8.4-9.85-3.25-9.39.5.04,8.38,4.68,8.63,5.11Z"/>
  <path class="st5" d="M179.98,139.19c2.03-.32,9.04,4.4,5.75,8.03-5.89,6.52-12.31-7.01-5.75-8.03Z"/>
  <path class="st5" d="M210.66,135.4c.27-.36,1.9-1.29,2.35-1.29,2,1.58,8.4,6.03,6.45,8.71-3.27,4.5-12.2-2.79-8.8-7.41h0Z"/>
  <path class="st5" d="M188.36,178.21c-3.93-3.64-.53-11.11,4.32-6.84,5.3,4.66-.14,10.71-4.32,6.84Z"/>
  <path class="st5" d="M271.33,196.11c-.25.16-5.12,1.66-5.76,1.78-1.48.29-5.4.96-6.37-.24.04-1.72,11.6-7,13.15-6.99,2.69.03-.31,4.99-1.02,5.44h0Z"/>
  <path class="st5" d="M232.33,114.04c-4.41,2.07-14.83,1.29-12.79-5.54,1.84.68,2.92,1.55,4.99,1.99,2.7.57,8.76-.39,7.8,3.55h0Z"/>
  <path class="st5" d="M133.29,217.56c3.36.73,8.18,7.26,3.01,8.67-4.79,1.31-7.02-6.38-3.01-8.67Z"/>
  <path class="st5" d="M74.35,262.72l2.67.12c1.04,8.11-2.69,2.94-5.13,2.03-.97-.36-3.21.69-3.53-1.22-.91-5.56,5.5-7.81,5.98-.93h.01Z"/>
  <path class="st5" d="M266.45,219.19c.63.87-2.32,3.29-3.36,2.55-.53-1.43-5.25-7.69-4.45-8.71,3.21,1.18,4.66,5.09,7.81,6.16Z"/>
  <path class="st5" d="M227.74,118.11c3.32-.99,10.51.23,6.03,4.35-.99-1.34-2.43-1.9-4.07-2.09-1.36-.16-4.34.74-3.76-.69.56-.51,1.04-1.34,1.8-1.56h0Z"/>
  <path class="st5" d="M229.43,124.23c1.25-.34,5.52,1.23,5.61,2.42-1.66,5.51-10.24-1.15-5.61-2.42Z"/>
  <path class="st5" d="M255.64,215.47c.74.69,2.56,3.35,1.87,4.27-1.4-.56-3.83-2.42-4.23-3.87-.65-2.31,1.22-1.47,2.36-.4h0Z"/>
  <path class="st0" d="M109.31,132.37c-.35.43-1.61,1.1-2.22,1.12-4,.18-10.15-2.29-14.52-2-2.95,3.67-4.14,1.98-7.32,2.17-4.14.25-11.39,6.76-15.15,8.92-4.34-4.18,3.04-9.87,6.49-11.94,6.69-4.02,17.17-4.22,24.82-3.72,2.63.17,11.59.88,7.91,5.45h-.01Z"/>
  <ellipse class="st1" cx="140.32" cy="221.63" rx="86.24" ry="51.39"/>
  <ellipse class="st1" cx="90.16" cy="137.51" rx="31.63" ry="21.15" transform="translate(-37.83 34.28) rotate(-17.86)"/>
  <path class="st4" d="M131.59,182c7.11,18.53-9.98,36.04-29.65,39.02-18.99,3.58-40.28-1.58-48-19.5-7.11-18.53,9.98-36.04,29.65-39.02,18.99-3.58,40.28,1.58,48,19.5Z"/>
  <path class="st3" d="M168.63,281.68c-45.94,1.88-90.31-42.5-99.44-103.09-1.23-8.13-1.78-16.17-1.72-24.01"/>
  <path class="st3" d="M170.42,281.21c-44.54-.55-86.13-44.2-95.02-103.19-1.32-8.79-1.87-17.47-1.69-25.92"/>
  <path class="st3" d="M172.73,281.07c-42.76-3.32-81.96-46.07-90.54-103.05-1.5-9.98-2-19.81-1.58-29.32"/>
  <path class="st3" d="M176.49,279.94c-41.61-4.95-79.14-47.06-87.53-102.76-1.58-10.49-2.05-20.82-1.51-30.78"/>
  <path class="st3" d="M179.34,279.02c-39.65-7.46-74.97-48.55-83.04-102.13-1.63-10.83-2.08-21.49-1.45-31.76"/>
  <path class="st3" d="M182.73,278.1c-37.67-9.66-71.05-49.74-78.8-101.21-1.65-10.93-2.08-21.68-1.43-32.02"/>
  <path class="st5" d="M84.72,120.12c9.78-1.53,27.3,3.91,30.9,14.09,3.79,10.71-5.56,13.72-14.3,13.75-12.62.05-18.81.5-30.24,6.59-3.19,1.7-4.42,4.48-8.77,2.26-3.63-1.85-2.48-4.34-3.18-6.88-1.04-3.8-2.44-3.35-.9-8.24,2.79-8.83,17.67-20.19,26.48-21.57h.01ZM105.92,135.47c3.69-4.57-5.28-5.28-7.91-5.45-7.65-.49-18.13-.3-24.82,3.72-3.45,2.08-10.83,7.76-6.49,11.94,3.76-2.15,11.01-8.67,15.15-8.92,3.18-.19,4.37,1.49,7.32-2.17,4.37-.29,10.52,2.18,14.52,2,.61-.03,1.87-.7,2.22-1.12h0Z"/>
  <g>
    <g>
      <g>
        <path class="st2" d="M30.15,45.22c3.47-.83,6.62-.69,9.39.39,2.77,1.08,4.55,2.93,5.37,5.5.78,2.41.47,5.02-.84,7.83-1.31,2.82-3.31,5.07-6.02,6.79-2.72,1.73-5.49,3.16-8.35,4.3-9.3,3.73-13.9,5.79-22.94,10.34-.21-1.52-.31-2.28-.51-3.81,1.35-.82,2.3-1.63,2.84-2.46s.67-2.49.4-4.99c-1-9.45-1.69-19-2.09-28.5-.05-.78-.14-1.34-.29-1.68-.39-.89-1.12-1.38-2.2-1.46-1.08-.08-2.14.11-3.17.57-.08-1.54-.12-2.32-.18-3.86,8.63-3.84,13-5.6,21.81-8.81,3.65-1.33,6.74-2.11,9.22-2.39,2.48-.28,4.77.1,6.84,1.13,2.07,1.03,3.41,2.6,4.04,4.69.88,2.9.16,5.67-2.08,8.36s-6,5.31-11.26,8.03l.02.03ZM20.33,50.89c.2,5.31.33,7.96.67,13.23.05,1.01.18,1.77.39,2.26.39.92,1.15,1.41,2.29,1.5s2.28-.11,3.43-.57c2.71-1.1,4.33-3.2,4.93-6.36.59-3.16.37-6.23-.73-9.21-.64-1.74-1.59-2.74-2.84-2.97s-2.93.05-5.02.87c-1.25.49-1.88.74-3.13,1.25h.01ZM20.05,30.47c-.05,6.65-.02,9.97.16,16.58.72-.24,1.33-.46,1.84-.66,2.38-.94,4.26-2.06,5.65-3.41s2.3-3.18,2.72-5.51.33-4.41-.31-6.25c-.46-1.31-1.31-2.11-2.58-2.39-1.27-.28-2.96-.05-5.06.73-.97.36-1.45.54-2.42.91Z"/>
        <path class="st2" d="M68.84,49.38c1.44-.34,2.16-.51,3.6-.84-1.75,6.45-5.14,10.28-10.41,11.72-2.13.58-3.85.63-5.16.14-1.31-.5-2.21-1.53-2.69-3.13-.28-.93-.31-2.7-.08-5.32.45-4.79.7-7.19,1.28-11.99.11-.93.14-1.52.07-1.77-.07-.25-.19-.41-.35-.49-.17-.08-.4-.07-.7,0-1.26.35-2.37,2.12-3.26,5.31-1.4.41-2.1.62-3.5,1.05,1.37-6.73,5.14-10.98,11.07-12.51,2.09-.54,3.83-.52,5.2.06,1.36.57,2.22,1.61,2.57,3.1.26,1.09.15,2.95-.28,5.57-.75,4.4-1.09,6.59-1.72,10.98-.23,1.55-.3,2.51-.2,2.86.06.23.18.39.37.47.18.09.42.09.7.02.61-.16,1.26-.82,1.98-2s1.23-2.26,1.52-3.24h0ZM68.04,16.77c.29,1.35-.06,2.64-1.04,3.88s-2.29,2.05-3.95,2.44c-1.66.39-3.19.26-4.63-.4s-2.33-1.66-2.68-3c-.35-1.36-.05-2.67.93-3.93s2.33-2.1,4.04-2.51c1.71-.41,3.29-.26,4.73.42,1.44.69,2.3,1.72,2.6,3.09h0Z"/>
        <path class="st2" d="M84,44.22c-2.07-.52-3.71-1.29-4.91-2.34-1.21-1.05-1.98-2.37-2.31-3.98-.56-2.73.34-5.38,2.78-7.9,2.44-2.52,6.13-4.22,11-4.96,2.05-.31,3.91-.39,5.56-.23s3.1.55,4.34,1.16c1.55-1.71,3.51-2.7,5.82-2.94,2.94-.3,4.5.6,4.68,2.65.19,2.13-.64,3.28-2.48,3.46-1.01.1-2.05-.25-3.14-1.05-.64-.45-1.15-.66-1.53-.61-.23.03-.52.15-.89.36,1.58,1.21,2.45,2.73,2.65,4.53.21,1.96-.35,3.87-1.63,5.75-1.29,1.88-2.93,3.29-4.93,4.24-2.01.95-4.67,1.71-7.96,2.37-4.12.82-6.08,1.93-5.86,3.15.1.55.54.96,1.31,1.21.77.26,2.6.47,5.47.68,5.03.38,8.66,1.19,10.89,2.31,2.21,1.11,3.44,2.93,3.72,5.4.36,3.16-1.04,5.76-4.09,7.89s-7.48,3.62-13.34,4.69c-5.09.93-9.02,1.13-11.86.45s-4.59-2.24-5.19-4.74c-.42-1.74-.07-3.31,1.07-4.69,1.15-1.38,2.31-2.19,3.46-2.45.9-.2,1.43.1,1.6.88.06.3,0,.68-.22,1.14-.53,1.29-.67,2.49-.42,3.61.34,1.54,1.36,2.53,3.06,2.99,1.69.46,4.04.38,7.07-.19,3.16-.59,5.48-1.33,6.96-2.29,1.48-.96,2.12-2.13,1.91-3.55-.13-.88-.73-1.54-1.77-1.93-1.05-.39-3.1-.76-6.11-1.05-4.26-.42-7.15-1.04-8.6-2.02-1.46-.98-2.35-2.18-2.66-3.62-.67-3.17,1.47-6.03,6.57-8.38h-.02ZM87.28,38.73c.21,1.24.6,2.12,1.15,2.67.55.54,1.28.74,2.18.59,1.43-.23,2.59-1.71,3.52-4.45.93-2.74,1.25-5.31.91-7.73-.13-.92-.44-1.58-.94-1.96-.5-.39-1.18-.52-2.04-.39-1.07.16-1.98.74-2.73,1.73s-1.33,2.59-1.72,4.78-.49,3.78-.32,4.76h0Z"/>
        <path class="st2" d="M153.6,28.2c-1.86,4.52-2.77,6.79-4.51,11.34-.56,1.45-.84,2.41-.85,2.86-.06,2.01,1.87,3.05,5.8,3.25-.56,1.43-.84,2.14-1.38,3.57-9.27-.42-13.92-.45-23.19-.14.43-1.47.65-2.2,1.1-3.67,1.41-.04,2.57-.35,3.47-.94s1.73-2.07,2.52-4.46c2.98-9,6.27-17.96,9.82-26.75.31-.71.47-1.25.47-1.64.02-.97-.47-1.73-1.48-2.25-1.01-.53-2.24-.8-3.7-.81.56-1.44.84-2.15,1.41-3.59,13.5.15,26.99,1.11,40.38,2.87-.46,4.28-.7,6.42-1.17,10.7-1.68-.22-2.52-.33-4.2-.53-.87-2.98-2-5.03-3.36-6.14-1.36-1.11-3.49-1.82-6.36-2.07-2.64-.23-3.96-.33-6.6-.51-2.79,6.12-4.13,9.19-6.7,15.36,1.17.06,1.75.09,2.92.16,2.56.15,4.49-.12,5.81-.84s2.56-2.29,3.74-4.7c1.88.16,2.81.25,4.69.44-3.26,6.67-4.83,10.02-7.82,16.77-1.78-.15-2.66-.21-4.44-.33.72-1.47,1.13-2.8,1.21-4.01.09-1.23-.38-2.16-1.4-2.78s-2.27-.97-3.74-1.05c-.97-.05-1.46-.08-2.43-.12h0Z"/>
        <path class="st2" d="M191.66,45.64c1.45.26,2.18.39,3.63.66-4.16,5.22-8.78,7.39-14.16,6.62-2.18-.31-3.76-.94-4.76-1.92s-1.41-2.29-1.21-3.94c.12-.97.78-2.61,2.03-4.91,2.3-4.22,3.49-6.32,5.91-10.5.47-.81.73-1.34.76-1.59.04-.26,0-.45-.13-.59-.12-.14-.33-.23-.64-.27-1.29-.18-3,1.01-5.08,3.58-1.44-.18-2.16-.26-3.6-.43,3.9-5.63,9.01-8.04,15.04-7.1,2.13.33,3.71,1.05,4.73,2.11,1.02,1.07,1.39,2.36,1.12,3.87-.2,1.11-1.03,2.77-2.47,5-2.43,3.74-3.61,5.62-5.93,9.4-.83,1.33-1.26,2.19-1.32,2.55-.04.23.01.43.15.58.13.15.34.25.63.3.62.1,1.48-.25,2.61-1.05,1.12-.8,2.02-1.58,2.68-2.37h.01ZM203.87,15.39c-.27,1.36-1.1,2.4-2.49,3.15-1.39.75-2.91.97-4.59.67-1.67-.3-3.02-1.03-4.07-2.21-1.05-1.18-1.47-2.45-1.26-3.81.22-1.39,1.02-2.47,2.41-3.24,1.39-.77,2.96-1,4.68-.7,1.72.31,3.12,1.07,4.16,2.27,1.05,1.2,1.42,2.49,1.15,3.87h.01Z"/>
        <path class="st2" d="M196.87,48.72c.21-1.06.78-1.94,1.73-2.62s2.17-.87,3.66-.56c2.69.57,3.99,2.47,3.83,5.59-.12,2.31,1.31,3.82,4.34,4.56,1.67.41,3.07.45,4.21.1,1.14-.35,1.83-.97,2.07-1.87.16-.58.03-1.18-.39-1.8-.42-.61-1.57-1.84-3.5-3.66-2.95-2.72-4.9-4.81-5.77-6.35-.87-1.54-1.12-3.21-.72-5.02.54-2.47,2.35-4.19,5.49-5.08,3.14-.89,7.33-.69,12.49.72,4.33,1.18,7.31,2.63,8.96,4.23s2.22,3.15,1.75,4.64c-.33,1.05-1.07,1.76-2.2,2.15-1.13.38-2.27.4-3.41.06-2.5-.75-3.64-2.33-3.43-4.78.17-1.88-1.11-3.22-3.84-3.95-1.62-.44-2.91-.5-3.87-.21-.95.29-1.55.94-1.81,1.95-.15.61,0,1.22.42,1.83.43.61,1.56,1.69,3.33,3.27,3.16,2.77,5.02,5.09,5.69,6.88.67,1.8.78,3.4.35,4.81-.76,2.53-2.73,4.2-5.85,5.1-3.12.9-7.06.7-11.9-.47-3.85-.93-6.85-2.17-9.01-3.79-2.17-1.62-3.06-3.52-2.63-5.72h.01Z"/>
        <path class="st2" d="M230.76,63.47c7.85-10.5,16.13-20.68,24.81-30.5.61-.7.98-1.23,1.12-1.59.4-1.07-.97-2.21-4.12-3.35.99-1.08,1.49-1.61,2.5-2.68,4.07,1.48,6.83,2.51,8.32,2.99,1.49.48,3.36.96,5.62,1.45,1.46.6,2.19.91,3.65,1.53-7.82,7.95-11.59,12.01-18.86,20.3,6.61-3.61,12.8-4.16,18.17-1.73,2,.9,3.32,1.98,3.96,3.2.64,1.22.67,2.41.13,3.56-.26.55-.7,1.16-1.33,1.84-.63.68-3.71,3.72-9.02,9.28-1.36,1.42-2.1,2.26-2.21,2.52-.24.53-.08.92.48,1.18.54.25,1.26.25,2.19.01s2.05-.71,3.38-1.42c1.57.74,2.35,1.12,3.9,1.89-2.6,1.71-5.35,2.73-8.28,3.1-2.93.37-5.68-.01-8.31-1.16-3.87-1.68-5.24-3.88-4.07-6.72.47-1.14,2.66-3.88,6.73-8.12,2.24-2.32,3.51-3.77,3.78-4.38.37-.85.07-1.49-.88-1.89-1.52-.64-4.04-.05-7.47,1.83-3.42,1.89-6.78,4.37-10.05,7.44-1.63,1.95-2.43,2.93-4.03,4.9-4.02-1.47-6.03-2.17-10.09-3.5l-.02.02Z"/>
      </g>
      <g>
        <path class="st4" d="M30.15,45.22c3.47-.83,6.62-.69,9.39.39,2.77,1.08,4.55,2.93,5.37,5.5.78,2.41.47,5.02-.84,7.83-1.31,2.82-3.31,5.07-6.02,6.79-2.72,1.73-5.49,3.16-8.35,4.3-9.3,3.73-13.9,5.79-22.94,10.34-.21-1.52-.31-2.28-.51-3.81,1.35-.82,2.3-1.63,2.84-2.46s.67-2.49.4-4.99c-1-9.45-1.69-19-2.09-28.5-.05-.78-.14-1.34-.29-1.68-.39-.89-1.12-1.38-2.2-1.46-1.08-.08-2.14.11-3.17.57-.08-1.54-.12-2.32-.18-3.86,8.63-3.84,13-5.6,21.81-8.81,3.65-1.33,6.74-2.11,9.22-2.39,2.48-.28,4.77.1,6.84,1.13,2.07,1.03,3.41,2.6,4.04,4.69.88,2.9.16,5.67-2.08,8.36s-6,5.31-11.26,8.03l.02.03ZM20.33,50.89c.2,5.31.33,7.96.67,13.23.05,1.01.18,1.77.39,2.26.39.92,1.15,1.41,2.29,1.5s2.28-.11,3.43-.57c2.71-1.1,4.33-3.2,4.93-6.36.59-3.16.37-6.23-.73-9.21-.64-1.74-1.59-2.74-2.84-2.97s-2.93.05-5.02.87c-1.25.49-1.88.74-3.13,1.25h.01ZM20.05,30.47c-.05,6.65-.02,9.97.16,16.58.72-.24,1.33-.46,1.84-.66,2.38-.94,4.26-2.06,5.65-3.41s2.3-3.18,2.72-5.51.33-4.41-.31-6.25c-.46-1.31-1.31-2.11-2.58-2.39-1.27-.28-2.96-.05-5.06.73-.97.36-1.45.54-2.42.91Z"/>
        <path class="st4" d="M68.84,49.38c1.44-.34,2.16-.51,3.6-.84-1.75,6.45-5.14,10.28-10.41,11.72-2.13.58-3.85.63-5.16.14-1.31-.5-2.21-1.53-2.69-3.13-.28-.93-.31-2.7-.08-5.32.45-4.79.7-7.19,1.28-11.99.11-.93.14-1.52.07-1.77-.07-.25-.19-.41-.35-.49-.17-.08-.4-.07-.7,0-1.26.35-2.37,2.12-3.26,5.31-1.4.41-2.1.62-3.5,1.05,1.37-6.73,5.14-10.98,11.07-12.51,2.09-.54,3.83-.52,5.2.06,1.36.57,2.22,1.61,2.57,3.1.26,1.09.15,2.95-.28,5.57-.75,4.4-1.09,6.59-1.72,10.98-.23,1.55-.3,2.51-.2,2.86.06.23.18.39.37.47.18.09.42.09.7.02.61-.16,1.26-.82,1.98-2s1.23-2.26,1.52-3.24h0ZM68.04,16.77c.29,1.35-.06,2.64-1.04,3.88s-2.29,2.05-3.95,2.44c-1.66.39-3.19.26-4.63-.4s-2.33-1.66-2.68-3c-.35-1.36-.05-2.67.93-3.93s2.33-2.1,4.04-2.51c1.71-.41,3.29-.26,4.73.42,1.44.69,2.3,1.72,2.6,3.09h0Z"/>
        <path class="st4" d="M84,44.22c-2.07-.52-3.71-1.29-4.91-2.34-1.21-1.05-1.98-2.37-2.31-3.98-.56-2.73.34-5.38,2.78-7.9,2.44-2.52,6.13-4.22,11-4.96,2.05-.31,3.91-.39,5.56-.23s3.1.55,4.34,1.16c1.55-1.71,3.51-2.7,5.82-2.94,2.94-.3,4.5.6,4.68,2.65.19,2.13-.64,3.28-2.48,3.46-1.01.1-2.05-.25-3.14-1.05-.64-.45-1.15-.66-1.53-.61-.23.03-.52.15-.89.36,1.58,1.21,2.45,2.73,2.65,4.53.21,1.96-.35,3.87-1.63,5.75-1.29,1.88-2.93,3.29-4.93,4.24-2.01.95-4.67,1.71-7.96,2.37-4.12.82-6.08,1.93-5.86,3.15.1.55.54.96,1.31,1.21.77.26,2.6.47,5.47.68,5.03.38,8.66,1.19,10.89,2.31,2.21,1.11,3.44,2.93,3.72,5.4.36,3.16-1.04,5.76-4.09,7.89s-7.48,3.62-13.34,4.69c-5.09.93-9.02,1.13-11.86.45s-4.59-2.24-5.19-4.74c-.42-1.74-.07-3.31,1.07-4.69,1.15-1.38,2.31-2.19,3.46-2.45.9-.2,1.43.1,1.6.88.06.3,0,.68-.22,1.14-.53,1.29-.67,2.49-.42,3.61.34,1.54,1.36,2.53,3.06,2.99,1.69.46,4.04.38,7.07-.19,3.16-.59,5.48-1.33,6.96-2.29,1.48-.96,2.12-2.13,1.91-3.55-.13-.88-.73-1.54-1.77-1.93-1.05-.39-3.1-.76-6.11-1.05-4.26-.42-7.15-1.04-8.6-2.02-1.46-.98-2.35-2.18-2.66-3.62-.67-3.17,1.47-6.03,6.57-8.38h-.02ZM87.28,38.73c.21,1.24.6,2.12,1.15,2.67.55.54,1.28.74,2.18.59,1.43-.23,2.59-1.71,3.52-4.45.93-2.74,1.25-5.31.91-7.73-.13-.92-.44-1.58-.94-1.96-.5-.39-1.18-.52-2.04-.39-1.07.16-1.98.74-2.73,1.73s-1.33,2.59-1.72,4.78-.49,3.78-.32,4.76h0Z"/>
        <path class="st4" d="M153.6,28.2c-1.86,4.52-2.77,6.79-4.51,11.34-.56,1.45-.84,2.41-.85,2.86-.06,2.01,1.87,3.05,5.8,3.25-.56,1.43-.84,2.14-1.38,3.57-9.27-.42-13.92-.45-23.19-.14.43-1.47.65-2.2,1.1-3.67,1.41-.04,2.57-.35,3.47-.94s1.73-2.07,2.52-4.46c2.98-9,6.27-17.96,9.82-26.75.31-.71.47-1.25.47-1.64.02-.97-.47-1.73-1.48-2.25-1.01-.53-2.24-.8-3.7-.81.56-1.44.84-2.15,1.41-3.59,13.5.15,26.99,1.11,40.38,2.87-.46,4.28-.7,6.42-1.17,10.7-1.68-.22-2.52-.33-4.2-.53-.87-2.98-2-5.03-3.36-6.14-1.36-1.11-3.49-1.82-6.36-2.07-2.64-.23-3.96-.33-6.6-.51-2.79,6.12-4.13,9.19-6.7,15.36,1.17.06,1.75.09,2.92.16,2.56.15,4.49-.12,5.81-.84s2.56-2.29,3.74-4.7c1.88.16,2.81.25,4.69.44-3.26,6.67-4.83,10.02-7.82,16.77-1.78-.15-2.66-.21-4.44-.33.72-1.47,1.13-2.8,1.21-4.01.09-1.23-.38-2.16-1.4-2.78s-2.27-.97-3.74-1.05c-.97-.05-1.46-.08-2.43-.12h0Z"/>
        <path class="st4" d="M191.66,45.64c1.45.26,2.18.39,3.63.66-4.16,5.22-8.78,7.39-14.16,6.62-2.18-.31-3.76-.94-4.76-1.92s-1.41-2.29-1.21-3.94c.12-.97.78-2.61,2.03-4.91,2.3-4.22,3.49-6.32,5.91-10.5.47-.81.73-1.34.76-1.59.04-.26,0-.45-.13-.59-.12-.14-.33-.23-.64-.27-1.29-.18-3,1.01-5.08,3.58-1.44-.18-2.16-.26-3.6-.43,3.9-5.63,9.01-8.04,15.04-7.1,2.13.33,3.71,1.05,4.73,2.11,1.02,1.07,1.39,2.36,1.12,3.87-.2,1.11-1.03,2.77-2.47,5-2.43,3.74-3.61,5.62-5.93,9.4-.83,1.33-1.26,2.19-1.32,2.55-.04.23.01.43.15.58.13.15.34.25.63.3.62.1,1.48-.25,2.61-1.05,1.12-.8,2.02-1.58,2.68-2.37h.01ZM203.87,15.39c-.27,1.36-1.1,2.4-2.49,3.15-1.39.75-2.91.97-4.59.67-1.67-.3-3.02-1.03-4.07-2.21-1.05-1.18-1.47-2.45-1.26-3.81.22-1.39,1.02-2.47,2.41-3.24,1.39-.77,2.96-1,4.68-.7,1.72.31,3.12,1.07,4.16,2.27,1.05,1.2,1.42,2.49,1.15,3.87h.01Z"/>
        <path class="st4" d="M196.87,48.72c.21-1.06.78-1.94,1.73-2.62s2.17-.87,3.66-.56c2.69.57,3.99,2.47,3.83,5.59-.12,2.31,1.31,3.82,4.34,4.56,1.67.41,3.07.45,4.21.1,1.14-.35,1.83-.97,2.07-1.87.16-.58.03-1.18-.39-1.8-.42-.61-1.57-1.84-3.5-3.66-2.95-2.72-4.9-4.81-5.77-6.35-.87-1.54-1.12-3.21-.72-5.02.54-2.47,2.35-4.19,5.49-5.08,3.14-.89,7.33-.69,12.49.72,4.33,1.18,7.31,2.63,8.96,4.23s2.22,3.15,1.75,4.64c-.33,1.05-1.07,1.76-2.2,2.15-1.13.38-2.27.4-3.41.06-2.5-.75-3.64-2.33-3.43-4.78.17-1.88-1.11-3.22-3.84-3.95-1.62-.44-2.91-.5-3.87-.21-.95.29-1.55.94-1.81,1.95-.15.61,0,1.22.42,1.83.43.61,1.56,1.69,3.33,3.27,3.16,2.77,5.02,5.09,5.69,6.88.67,1.8.78,3.4.35,4.81-.76,2.53-2.73,4.2-5.85,5.1-3.12.9-7.06.7-11.9-.47-3.85-.93-6.85-2.17-9.01-3.79-2.17-1.62-3.06-3.52-2.63-5.72h.01Z"/>
        <path class="st4" d="M230.76,63.47c7.85-10.5,16.13-20.68,24.81-30.5.61-.7.98-1.23,1.12-1.59.4-1.07-.97-2.21-4.12-3.35.99-1.08,1.49-1.61,2.5-2.68,4.07,1.48,6.83,2.51,8.32,2.99,1.49.48,3.36.96,5.62,1.45,1.46.6,2.19.91,3.65,1.53-7.82,7.95-11.59,12.01-18.86,20.3,6.61-3.61,12.8-4.16,18.17-1.73,2,.9,3.32,1.98,3.96,3.2.64,1.22.67,2.41.13,3.56-.26.55-.7,1.16-1.33,1.84-.63.68-3.71,3.72-9.02,9.28-1.36,1.42-2.1,2.26-2.21,2.52-.24.53-.08.92.48,1.18.54.25,1.26.25,2.19.01s2.05-.71,3.38-1.42c1.57.74,2.35,1.12,3.9,1.89-2.6,1.71-5.35,2.73-8.28,3.1-2.93.37-5.68-.01-8.31-1.16-3.87-1.68-5.24-3.88-4.07-6.72.47-1.14,2.66-3.88,6.73-8.12,2.24-2.32,3.51-3.77,3.78-4.38.37-.85.07-1.49-.88-1.89-1.52-.64-4.04-.05-7.47,1.83-3.42,1.89-6.78,4.37-10.05,7.44-1.63,1.95-2.43,2.93-4.03,4.9-4.02-1.47-6.03-2.17-10.09-3.5l-.02.02Z"/>
      </g>
    </g>
    <g>
      <g>
        <path class="st2" d="M31.4,42.53c3.5-.82,6.66-.66,9.44.43s4.55,2.96,5.36,5.53c.76,2.41.43,5.02-.91,7.83-1.34,2.81-3.37,5.05-6.12,6.77-2.75,1.71-5.55,3.13-8.43,4.27-9.39,3.69-14.03,5.74-23.15,10.25-.2-1.52-.29-2.29-.48-3.81,1.36-.81,2.32-1.62,2.88-2.45.55-.83.7-2.49.45-4.99-.92-9.47-1.53-19.03-1.85-28.53-.04-.78-.13-1.34-.27-1.68-.38-.89-1.11-1.39-2.2-1.47s-2.15.1-3.19.56c-.07-1.54-.1-2.32-.15-3.86,8.7-3.8,13.11-5.55,21.99-8.72,3.68-1.31,6.79-2.08,9.28-2.34,2.5-.27,4.79.13,6.87,1.17,2.07,1.04,3.41,2.62,4.03,4.71.86,2.9.11,5.67-2.16,8.35-2.27,2.68-6.08,5.28-11.39,7.99h0ZM21.48,48.15c.15,5.31.27,7.96.56,13.25.04,1.01.17,1.77.38,2.27.38.92,1.15,1.42,2.29,1.51s2.29-.1,3.45-.56c2.73-1.09,4.39-3.18,5.01-6.34s.43-6.24-.65-9.22c-.63-1.75-1.57-2.75-2.83-2.99s-2.95.04-5.05.85c-1.26.49-1.89.74-3.15,1.24h0ZM21.37,27.72c-.1,6.66-.1,9.97.02,16.59.72-.24,1.34-.46,1.86-.66,2.4-.93,4.3-2.05,5.71-3.39s2.34-3.17,2.78-5.5c.44-2.33.37-4.41-.26-6.25-.45-1.31-1.3-2.11-2.58-2.4-1.27-.29-2.98-.06-5.09.71-.98.36-1.46.53-2.44.9h0Z"/>
        <path class="st2" d="M70.28,46.88c1.45-.34,2.18-.5,3.63-.82-1.81,6.44-5.25,10.26-10.57,11.67-2.15.57-3.88.62-5.19.11-1.32-.5-2.21-1.55-2.68-3.14-.27-.93-.29-2.71-.03-5.32.49-4.79.77-7.19,1.39-11.99.12-.93.15-1.52.09-1.77-.07-.25-.18-.42-.35-.49-.17-.08-.4-.08-.7,0-1.27.34-2.41,2.11-3.33,5.3-1.41.4-2.12.61-3.53,1.03,1.43-6.72,5.26-10.96,11.23-12.47,2.11-.53,3.86-.5,5.23.08s2.22,1.62,2.56,3.12c.25,1.1.13,2.95-.33,5.57-.79,4.39-1.15,6.59-1.82,10.98-.25,1.55-.32,2.51-.23,2.86.06.23.18.39.36.48.18.09.42.1.7.03.61-.15,1.28-.82,2.01-1.99.73-1.18,1.25-2.25,1.56-3.23h0ZM69.73,14.26c.29,1.35-.08,2.64-1.08,3.88-1,1.23-2.32,2.04-3.99,2.42-1.67.39-3.21.25-4.65-.43-1.44-.67-2.33-1.67-2.67-3.01-.34-1.36-.02-2.67.97-3.93s2.36-2.09,4.08-2.49,3.31-.24,4.75.45,2.3,1.73,2.59,3.11Z"/>
        <path class="st2" d="M85.57,41.79c-2.08-.53-3.72-1.31-4.93-2.37-1.21-1.06-1.98-2.38-2.3-3.99-.54-2.74.38-5.38,2.86-7.89,2.47-2.51,6.2-4.19,11.1-4.9,2.07-.3,3.93-.36,5.6-.2,1.66.17,3.12.56,4.36,1.18,1.57-1.7,3.55-2.68,5.88-2.91,2.96-.28,4.52.63,4.69,2.67.18,2.13-.67,3.27-2.52,3.44-1.02.09-2.06-.26-3.15-1.07-.64-.46-1.15-.66-1.54-.62-.23.02-.53.14-.89.36,1.58,1.22,2.45,2.74,2.63,4.55.2,1.96-.38,3.86-1.69,5.74-1.31,1.87-2.97,3.27-5,4.21s-4.72,1.69-8.03,2.32c-4.15.8-6.13,1.9-5.92,3.11.1.55.53.96,1.31,1.22.77.26,2.61.48,5.5.71,5.06.4,8.71,1.24,10.95,2.37,2.21,1.12,3.44,2.95,3.71,5.42.34,3.16-1.08,5.75-4.18,7.86-3.09,2.11-7.56,3.58-13.47,4.62-5.13.91-9.09,1.08-11.95.38-2.86-.7-4.6-2.27-5.19-4.77-.41-1.75-.05-3.31,1.12-4.68,1.16-1.37,2.34-2.18,3.5-2.43.9-.19,1.44.11,1.6.89.06.3-.02.68-.23,1.14-.55,1.29-.69,2.49-.45,3.61.33,1.54,1.35,2.54,3.06,3,1.7.47,4.07.4,7.12-.15,3.19-.57,5.53-1.3,7.03-2.25s2.16-2.12,1.95-3.54c-.13-.88-.72-1.54-1.76-1.94-1.05-.39-3.12-.77-6.15-1.08-4.28-.44-7.19-1.08-8.65-2.06-1.46-.99-2.35-2.19-2.64-3.63-.65-3.18,1.53-6.02,6.68-8.35v.03ZM88.91,36.32c.2,1.24.58,2.13,1.14,2.67.55.55,1.28.75,2.19.61,1.44-.22,2.62-1.7,3.58-4.43s1.3-5.31.97-7.73c-.12-.92-.43-1.58-.93-1.97s-1.18-.53-2.05-.4c-1.08.15-2,.73-2.76,1.72s-1.35,2.58-1.76,4.77c-.41,2.19-.52,3.77-.36,4.76h-.02Z"/>
        <path class="st2" d="M155.75,26.2c-1.9,4.51-2.83,6.77-4.61,11.31-.57,1.45-.86,2.4-.88,2.85-.07,2.01,1.87,3.07,5.82,3.29-.57,1.42-.86,2.13-1.42,3.56-9.34-.48-14.02-.54-23.36-.29.45-1.47.67-2.2,1.13-3.66,1.42-.03,2.59-.34,3.5-.92.91-.58,1.76-2.06,2.56-4.44,3.06-8.98,6.43-17.92,10.06-26.69.31-.7.48-1.25.49-1.64.03-.97-.46-1.73-1.47-2.26-1.01-.53-2.25-.81-3.71-.83.57-1.43.86-2.15,1.44-3.58,13.59.24,27.16,1.29,40.62,3.15-.49,4.28-.74,6.42-1.23,10.7-1.69-.23-2.53-.35-4.22-.56-.85-2.98-1.98-5.04-3.34-6.16-1.37-1.12-3.5-1.84-6.39-2.11-2.65-.25-3.98-.36-6.64-.55-2.84,6.1-4.21,9.16-6.83,15.32,1.18.07,1.76.1,2.94.18,2.57.17,4.52-.09,5.85-.8,1.33-.71,2.59-2.27,3.79-4.68,1.89.18,2.83.27,4.71.48-3.32,6.65-4.92,9.99-7.97,16.71-1.79-.16-2.68-.23-4.47-.36.73-1.46,1.15-2.8,1.24-4,.09-1.23-.37-2.16-1.4-2.79-1.03-.63-2.28-.99-3.76-1.07-.98-.06-1.47-.09-2.45-.14v-.02Z"/>
        <path class="st2" d="M193.97,43.91c1.46.27,2.19.4,3.65.69-4.21,5.19-8.88,7.33-14.3,6.51-2.19-.33-3.78-.97-4.78-1.95s-1.41-2.3-1.19-3.95c.12-.96.8-2.6,2.08-4.9,2.34-4.2,3.55-6.3,6.01-10.46.48-.8.74-1.33.78-1.59s0-.45-.13-.59c-.12-.14-.34-.23-.64-.27-1.3-.19-3.03.99-5.13,3.55-1.45-.19-2.17-.28-3.62-.45,3.96-5.6,9.12-7.98,15.18-6.98,2.14.35,3.73,1.08,4.75,2.15s1.39,2.37,1.11,3.88c-.21,1.11-1.05,2.76-2.51,4.98-2.46,3.72-3.67,5.59-6.02,9.35-.84,1.33-1.28,2.18-1.34,2.54-.04.23,0,.43.14.58.13.15.34.25.63.3.62.1,1.49-.24,2.63-1.03,1.14-.79,2.04-1.57,2.71-2.35h0ZM206.42,13.75c-.28,1.36-1.12,2.4-2.53,3.13-1.4.74-2.94.95-4.62.64-1.68-.31-3.04-1.05-4.09-2.24-1.05-1.19-1.47-2.46-1.25-3.82.23-1.39,1.04-2.46,2.44-3.22,1.41-.76,2.98-.98,4.72-.66,1.73.32,3.13,1.09,4.18,2.3s1.42,2.51,1.14,3.88h0Z"/>
        <path class="st2" d="M199.2,47.03c.21-1.06.79-1.93,1.75-2.6s2.19-.85,3.69-.53c2.71.59,4.01,2.5,3.83,5.62-.13,2.31,1.3,3.83,4.35,4.6,1.68.43,3.09.48,4.24.14s1.84-.96,2.09-1.85c.16-.58.03-1.18-.38-1.8-.42-.62-1.57-1.86-3.5-3.69-2.95-2.74-4.91-4.85-5.78-6.4-.87-1.54-1.11-3.22-.7-5.03.56-2.47,2.39-4.17,5.55-5.03,3.16-.87,7.38-.63,12.56.82,4.35,1.22,7.35,2.7,9,4.31,1.65,1.62,2.22,3.17,1.74,4.65-.34,1.05-1.09,1.76-2.23,2.13-1.14.37-2.28.38-3.43.03-2.52-.77-3.65-2.36-3.43-4.82.17-1.88-1.11-3.23-3.84-3.99-1.63-.45-2.93-.52-3.89-.24-.96.28-1.57.93-1.83,1.94-.16.61-.02,1.22.42,1.83.43.62,1.56,1.71,3.34,3.3,3.16,2.8,5.03,5.13,5.69,6.94.66,1.8.77,3.41.33,4.81-.77,2.52-2.76,4.18-5.91,5.05s-7.11.64-11.98-.57c-3.87-.97-6.88-2.23-9.06-3.87s-3.07-3.54-2.62-5.75h0Z"/>
        <path class="st2" d="M233.26,62.07c7.95-10.44,16.33-20.55,25.1-30.31.61-.69.99-1.22,1.13-1.58.41-1.07-.96-2.22-4.14-3.38,1.01-1.07,1.51-1.6,2.53-2.66,4.09,1.52,6.86,2.57,8.36,3.07s3.38.99,5.65,1.5c1.47.62,2.2.93,3.67,1.57-7.89,7.88-11.71,11.92-19.06,20.15,6.67-3.55,12.9-4.05,18.29-1.57,2.01.92,3.33,2.01,3.97,3.24.64,1.23.67,2.42.11,3.56-.26.54-.71,1.16-1.35,1.83-.63.68-3.75,3.69-9.11,9.21-1.38,1.41-2.12,2.25-2.23,2.5-.24.53-.09.92.47,1.19.54.25,1.27.26,2.2.03.93-.23,2.07-.69,3.41-1.39,1.57.76,2.36,1.15,3.92,1.93-2.62,1.69-5.4,2.69-8.35,3.03s-5.72-.07-8.36-1.24c-3.89-1.72-5.26-3.94-4.07-6.77.48-1.14,2.7-3.86,6.81-8.07,2.26-2.3,3.55-3.74,3.82-4.35.37-.85.08-1.49-.88-1.9-1.53-.66-4.07-.09-7.52,1.77-3.45,1.86-6.84,4.32-10.14,7.36-1.65,1.94-2.46,2.91-4.08,4.87-4.04-1.51-6.07-2.23-10.14-3.59h-.01Z"/>
      </g>
      <g>
        <path class="st5" d="M31.4,42.53c3.5-.82,6.66-.66,9.44.43s4.55,2.96,5.36,5.53c.76,2.41.43,5.02-.91,7.83-1.34,2.81-3.37,5.05-6.12,6.77-2.75,1.71-5.55,3.13-8.43,4.27-9.39,3.69-14.03,5.74-23.15,10.25-.2-1.52-.29-2.29-.48-3.81,1.36-.81,2.32-1.62,2.88-2.45.55-.83.7-2.49.45-4.99-.92-9.47-1.53-19.03-1.85-28.53-.04-.78-.13-1.34-.27-1.68-.38-.89-1.11-1.39-2.2-1.47s-2.15.1-3.19.56c-.07-1.54-.1-2.32-.15-3.86,8.7-3.8,13.11-5.55,21.99-8.72,3.68-1.31,6.79-2.08,9.28-2.34,2.5-.27,4.79.13,6.87,1.17,2.07,1.04,3.41,2.62,4.03,4.71.86,2.9.11,5.67-2.16,8.35-2.27,2.68-6.08,5.28-11.39,7.99h0ZM21.48,48.15c.15,5.31.27,7.96.56,13.25.04,1.01.17,1.77.38,2.27.38.92,1.15,1.42,2.29,1.51s2.29-.1,3.45-.56c2.73-1.09,4.39-3.18,5.01-6.34s.43-6.24-.65-9.22c-.63-1.75-1.57-2.75-2.83-2.99s-2.95.04-5.05.85c-1.26.49-1.89.74-3.15,1.24h0ZM21.37,27.72c-.1,6.66-.1,9.97.02,16.59.72-.24,1.34-.46,1.86-.66,2.4-.93,4.3-2.05,5.71-3.39s2.34-3.17,2.78-5.5c.44-2.33.37-4.41-.26-6.25-.45-1.31-1.3-2.11-2.58-2.4-1.27-.29-2.98-.06-5.09.71-.98.36-1.46.53-2.44.9h0Z"/>
        <path class="st5" d="M70.28,46.88c1.45-.34,2.18-.5,3.63-.82-1.81,6.44-5.25,10.26-10.57,11.67-2.15.57-3.88.62-5.19.11-1.32-.5-2.21-1.55-2.68-3.14-.27-.93-.29-2.71-.03-5.32.49-4.79.77-7.19,1.39-11.99.12-.93.15-1.52.09-1.77-.07-.25-.18-.42-.35-.49-.17-.08-.4-.08-.7,0-1.27.34-2.41,2.11-3.33,5.3-1.41.4-2.12.61-3.53,1.03,1.43-6.72,5.26-10.96,11.23-12.47,2.11-.53,3.86-.5,5.23.08s2.22,1.62,2.56,3.12c.25,1.1.13,2.95-.33,5.57-.79,4.39-1.15,6.59-1.82,10.98-.25,1.55-.32,2.51-.23,2.86.06.23.18.39.36.48.18.09.42.1.7.03.61-.15,1.28-.82,2.01-1.99.73-1.18,1.25-2.25,1.56-3.23h0ZM69.73,14.26c.29,1.35-.08,2.64-1.08,3.88-1,1.23-2.32,2.04-3.99,2.42-1.67.39-3.21.25-4.65-.43-1.44-.67-2.33-1.67-2.67-3.01-.34-1.36-.02-2.67.97-3.93s2.36-2.09,4.08-2.49,3.31-.24,4.75.45,2.3,1.73,2.59,3.11Z"/>
        <path class="st5" d="M85.57,41.79c-2.08-.53-3.72-1.31-4.93-2.37-1.21-1.06-1.98-2.38-2.3-3.99-.54-2.74.38-5.38,2.86-7.89,2.47-2.51,6.2-4.19,11.1-4.9,2.07-.3,3.93-.36,5.6-.2,1.66.17,3.12.56,4.36,1.18,1.57-1.7,3.55-2.68,5.88-2.91,2.96-.28,4.52.63,4.69,2.67.18,2.13-.67,3.27-2.52,3.44-1.02.09-2.06-.26-3.15-1.07-.64-.46-1.15-.66-1.54-.62-.23.02-.53.14-.89.36,1.58,1.22,2.45,2.74,2.63,4.55.2,1.96-.38,3.86-1.69,5.74-1.31,1.87-2.97,3.27-5,4.21s-4.72,1.69-8.03,2.32c-4.15.8-6.13,1.9-5.92,3.11.1.55.53.96,1.31,1.22.77.26,2.61.48,5.5.71,5.06.4,8.71,1.24,10.95,2.37,2.21,1.12,3.44,2.95,3.71,5.42.34,3.16-1.08,5.75-4.18,7.86-3.09,2.11-7.56,3.58-13.47,4.62-5.13.91-9.09,1.08-11.95.38-2.86-.7-4.6-2.27-5.19-4.77-.41-1.75-.05-3.31,1.12-4.68,1.16-1.37,2.34-2.18,3.5-2.43.9-.19,1.44.11,1.6.89.06.3-.02.68-.23,1.14-.55,1.29-.69,2.49-.45,3.61.33,1.54,1.35,2.54,3.06,3,1.7.47,4.07.4,7.12-.15,3.19-.57,5.53-1.3,7.03-2.25s2.16-2.12,1.95-3.54c-.13-.88-.72-1.54-1.76-1.94-1.05-.39-3.12-.77-6.15-1.08-4.28-.44-7.19-1.08-8.65-2.06-1.46-.99-2.35-2.19-2.64-3.63-.65-3.18,1.53-6.02,6.68-8.35v.03ZM88.91,36.32c.2,1.24.58,2.13,1.14,2.67.55.55,1.28.75,2.19.61,1.44-.22,2.62-1.7,3.58-4.43s1.3-5.31.97-7.73c-.12-.92-.43-1.58-.93-1.97s-1.18-.53-2.05-.4c-1.08.15-2,.73-2.76,1.72s-1.35,2.58-1.76,4.77c-.41,2.19-.52,3.77-.36,4.76h-.02Z"/>
        <path class="st5" d="M155.75,26.2c-1.9,4.51-2.83,6.77-4.61,11.31-.57,1.45-.86,2.4-.88,2.85-.07,2.01,1.87,3.07,5.82,3.29-.57,1.42-.86,2.13-1.42,3.56-9.34-.48-14.02-.54-23.36-.29.45-1.47.67-2.2,1.13-3.66,1.42-.03,2.59-.34,3.5-.92.91-.58,1.76-2.06,2.56-4.44,3.06-8.98,6.43-17.92,10.06-26.69.31-.7.48-1.25.49-1.64.03-.97-.46-1.73-1.47-2.26-1.01-.53-2.25-.81-3.71-.83.57-1.43.86-2.15,1.44-3.58,13.59.24,27.16,1.29,40.62,3.15-.49,4.28-.74,6.42-1.23,10.7-1.69-.23-2.53-.35-4.22-.56-.85-2.98-1.98-5.04-3.34-6.16-1.37-1.12-3.5-1.84-6.39-2.11-2.65-.25-3.98-.36-6.64-.55-2.84,6.1-4.21,9.16-6.83,15.32,1.18.07,1.76.1,2.94.18,2.57.17,4.52-.09,5.85-.8,1.33-.71,2.59-2.27,3.79-4.68,1.89.18,2.83.27,4.71.48-3.32,6.65-4.92,9.99-7.97,16.71-1.79-.16-2.68-.23-4.47-.36.73-1.46,1.15-2.8,1.24-4,.09-1.23-.37-2.16-1.4-2.79-1.03-.63-2.28-.99-3.76-1.07-.98-.06-1.47-.09-2.45-.14v-.02Z"/>
        <path class="st5" d="M193.97,43.91c1.46.27,2.19.4,3.65.69-4.21,5.19-8.88,7.33-14.3,6.51-2.19-.33-3.78-.97-4.78-1.95s-1.41-2.3-1.19-3.95c.12-.96.8-2.6,2.08-4.9,2.34-4.2,3.55-6.3,6.01-10.46.48-.8.74-1.33.78-1.59s0-.45-.13-.59c-.12-.14-.34-.23-.64-.27-1.3-.19-3.03.99-5.13,3.55-1.45-.19-2.17-.28-3.62-.45,3.96-5.6,9.12-7.98,15.18-6.98,2.14.35,3.73,1.08,4.75,2.15s1.39,2.37,1.11,3.88c-.21,1.11-1.05,2.76-2.51,4.98-2.46,3.72-3.67,5.59-6.02,9.35-.84,1.33-1.28,2.18-1.34,2.54-.04.23,0,.43.14.58.13.15.34.25.63.3.62.1,1.49-.24,2.63-1.03,1.14-.79,2.04-1.57,2.71-2.35h0ZM206.42,13.75c-.28,1.36-1.12,2.4-2.53,3.13-1.4.74-2.94.95-4.62.64-1.68-.31-3.04-1.05-4.09-2.24-1.05-1.19-1.47-2.46-1.25-3.82.23-1.39,1.04-2.46,2.44-3.22,1.41-.76,2.98-.98,4.72-.66,1.73.32,3.13,1.09,4.18,2.3s1.42,2.51,1.14,3.88h0Z"/>
        <path class="st5" d="M199.2,47.03c.21-1.06.79-1.93,1.75-2.6s2.19-.85,3.69-.53c2.71.59,4.01,2.5,3.83,5.62-.13,2.31,1.3,3.83,4.35,4.6,1.68.43,3.09.48,4.24.14s1.84-.96,2.09-1.85c.16-.58.03-1.18-.38-1.8-.42-.62-1.57-1.86-3.5-3.69-2.95-2.74-4.91-4.85-5.78-6.4-.87-1.54-1.11-3.22-.7-5.03.56-2.47,2.39-4.17,5.55-5.03,3.16-.87,7.38-.63,12.56.82,4.35,1.22,7.35,2.7,9,4.31,1.65,1.62,2.22,3.17,1.74,4.65-.34,1.05-1.09,1.76-2.23,2.13-1.14.37-2.28.38-3.43.03-2.52-.77-3.65-2.36-3.43-4.82.17-1.88-1.11-3.23-3.84-3.99-1.63-.45-2.93-.52-3.89-.24-.96.28-1.57.93-1.83,1.94-.16.61-.02,1.22.42,1.83.43.62,1.56,1.71,3.34,3.3,3.16,2.8,5.03,5.13,5.69,6.94.66,1.8.77,3.41.33,4.81-.77,2.52-2.76,4.18-5.91,5.05s-7.11.64-11.98-.57c-3.87-.97-6.88-2.23-9.06-3.87s-3.07-3.54-2.62-5.75h0Z"/>
        <path class="st5" d="M233.26,62.07c7.95-10.44,16.33-20.55,25.1-30.31.61-.69.99-1.22,1.13-1.58.41-1.07-.96-2.22-4.14-3.38,1.01-1.07,1.51-1.6,2.53-2.66,4.09,1.52,6.86,2.57,8.36,3.07s3.38.99,5.65,1.5c1.47.62,2.2.93,3.67,1.57-7.89,7.88-11.71,11.92-19.06,20.15,6.67-3.55,12.9-4.05,18.29-1.57,2.01.92,3.33,2.01,3.97,3.24.64,1.23.67,2.42.11,3.56-.26.54-.71,1.16-1.35,1.83-.63.68-3.75,3.69-9.11,9.21-1.38,1.41-2.12,2.25-2.23,2.5-.24.53-.09.92.47,1.19.54.25,1.27.26,2.2.03.93-.23,2.07-.69,3.41-1.39,1.57.76,2.36,1.15,3.92,1.93-2.62,1.69-5.4,2.69-8.35,3.03s-5.72-.07-8.36-1.24c-3.89-1.72-5.26-3.94-4.07-6.77.48-1.14,2.7-3.86,6.81-8.07,2.26-2.3,3.55-3.74,3.82-4.35.37-.85.08-1.49-.88-1.9-1.53-.66-4.07-.09-7.52,1.77-3.45,1.86-6.84,4.32-10.14,7.36-1.65,1.94-2.46,2.91-4.08,4.87-4.04-1.51-6.07-2.23-10.14-3.59h-.01Z"/>
      </g>
      <g>
        <path class="st3" d="M31.4,42.53c3.5-.82,6.66-.66,9.44.43s4.55,2.96,5.36,5.53c.76,2.41.43,5.02-.91,7.83-1.34,2.81-3.37,5.05-6.12,6.77-2.75,1.71-5.55,3.13-8.43,4.27-9.39,3.69-14.03,5.74-23.15,10.25-.2-1.52-.29-2.29-.48-3.81,1.36-.81,2.32-1.62,2.88-2.45.55-.83.7-2.49.45-4.99-.92-9.47-1.53-19.03-1.85-28.53-.04-.78-.13-1.34-.27-1.68-.38-.89-1.11-1.39-2.2-1.47s-2.15.1-3.19.56c-.07-1.54-.1-2.32-.15-3.86,8.7-3.8,13.11-5.55,21.99-8.72,3.68-1.31,6.79-2.08,9.28-2.34,2.5-.27,4.79.13,6.87,1.17,2.07,1.04,3.41,2.62,4.03,4.71.86,2.9.11,5.67-2.16,8.35-2.27,2.68-6.08,5.28-11.39,7.99h0ZM21.48,48.15c.15,5.31.27,7.96.56,13.25.04,1.01.17,1.77.38,2.27.38.92,1.15,1.42,2.29,1.51s2.29-.1,3.45-.56c2.73-1.09,4.39-3.18,5.01-6.34s.43-6.24-.65-9.22c-.63-1.75-1.57-2.75-2.83-2.99s-2.95.04-5.05.85c-1.26.49-1.89.74-3.15,1.24h0ZM21.37,27.72c-.1,6.66-.1,9.97.02,16.59.72-.24,1.34-.46,1.86-.66,2.4-.93,4.3-2.05,5.71-3.39s2.34-3.17,2.78-5.5c.44-2.33.37-4.41-.26-6.25-.45-1.31-1.3-2.11-2.58-2.4-1.27-.29-2.98-.06-5.09.71-.98.36-1.46.53-2.44.9h0Z"/>
        <path class="st3" d="M70.28,46.88c1.45-.34,2.18-.5,3.63-.82-1.81,6.44-5.25,10.26-10.57,11.67-2.15.57-3.88.62-5.19.11-1.32-.5-2.21-1.55-2.68-3.14-.27-.93-.29-2.71-.03-5.32.49-4.79.77-7.19,1.39-11.99.12-.93.15-1.52.09-1.77-.07-.25-.18-.42-.35-.49-.17-.08-.4-.08-.7,0-1.27.34-2.41,2.11-3.33,5.3-1.41.4-2.12.61-3.53,1.03,1.43-6.72,5.26-10.96,11.23-12.47,2.11-.53,3.86-.5,5.23.08s2.22,1.62,2.56,3.12c.25,1.1.13,2.95-.33,5.57-.79,4.39-1.15,6.59-1.82,10.98-.25,1.55-.32,2.51-.23,2.86.06.23.18.39.36.48.18.09.42.1.7.03.61-.15,1.28-.82,2.01-1.99.73-1.18,1.25-2.25,1.56-3.23h0ZM69.73,14.26c.29,1.35-.08,2.64-1.08,3.88-1,1.23-2.32,2.04-3.99,2.42-1.67.39-3.21.25-4.65-.43-1.44-.67-2.33-1.67-2.67-3.01-.34-1.36-.02-2.67.97-3.93s2.36-2.09,4.08-2.49,3.31-.24,4.75.45,2.3,1.73,2.59,3.11Z"/>
        <path class="st3" d="M85.57,41.79c-2.08-.53-3.72-1.31-4.93-2.37-1.21-1.06-1.98-2.38-2.3-3.99-.54-2.74.38-5.38,2.86-7.89,2.47-2.51,6.2-4.19,11.1-4.9,2.07-.3,3.93-.36,5.6-.2,1.66.17,3.12.56,4.36,1.18,1.57-1.7,3.55-2.68,5.88-2.91,2.96-.28,4.52.63,4.69,2.67.18,2.13-.67,3.27-2.52,3.44-1.02.09-2.06-.26-3.15-1.07-.64-.46-1.15-.66-1.54-.62-.23.02-.53.14-.89.36,1.58,1.22,2.45,2.74,2.63,4.55.2,1.96-.38,3.86-1.69,5.74-1.31,1.87-2.97,3.27-5,4.21s-4.72,1.69-8.03,2.32c-4.15.8-6.13,1.9-5.92,3.11.1.55.53.96,1.31,1.22.77.26,2.61.48,5.5.71,5.06.4,8.71,1.24,10.95,2.37,2.21,1.12,3.44,2.95,3.71,5.42.34,3.16-1.08,5.75-4.18,7.86-3.09,2.11-7.56,3.58-13.47,4.62-5.13.91-9.09,1.08-11.95.38-2.86-.7-4.6-2.27-5.19-4.77-.41-1.75-.05-3.31,1.12-4.68,1.16-1.37,2.34-2.18,3.5-2.43.9-.19,1.44.11,1.6.89.06.3-.02.68-.23,1.14-.55,1.29-.69,2.49-.45,3.61.33,1.54,1.35,2.54,3.06,3,1.7.47,4.07.4,7.12-.15,3.19-.57,5.53-1.3,7.03-2.25s2.16-2.12,1.95-3.54c-.13-.88-.72-1.54-1.76-1.94-1.05-.39-3.12-.77-6.15-1.08-4.28-.44-7.19-1.08-8.65-2.06-1.46-.99-2.35-2.19-2.64-3.63-.65-3.18,1.53-6.02,6.68-8.35v.03ZM88.91,36.32c.2,1.24.58,2.13,1.14,2.67.55.55,1.28.75,2.19.61,1.44-.22,2.62-1.7,3.58-4.43s1.3-5.31.97-7.73c-.12-.92-.43-1.58-.93-1.97s-1.18-.53-2.05-.4c-1.08.15-2,.73-2.76,1.72s-1.35,2.58-1.76,4.77c-.41,2.19-.52,3.77-.36,4.76h-.02Z"/>
        <path class="st3" d="M155.75,26.2c-1.9,4.51-2.83,6.77-4.61,11.31-.57,1.45-.86,2.4-.88,2.85-.07,2.01,1.87,3.07,5.82,3.29-.57,1.42-.86,2.13-1.42,3.56-9.34-.48-14.02-.54-23.36-.29.45-1.47.67-2.2,1.13-3.66,1.42-.03,2.59-.34,3.5-.92.91-.58,1.76-2.06,2.56-4.44,3.06-8.98,6.43-17.92,10.06-26.69.31-.7.48-1.25.49-1.64.03-.97-.46-1.73-1.47-2.26-1.01-.53-2.25-.81-3.71-.83.57-1.43.86-2.15,1.44-3.58,13.59.24,27.16,1.29,40.62,3.15-.49,4.28-.74,6.42-1.23,10.7-1.69-.23-2.53-.35-4.22-.56-.85-2.98-1.98-5.04-3.34-6.16-1.37-1.12-3.5-1.84-6.39-2.11-2.65-.25-3.98-.36-6.64-.55-2.84,6.1-4.21,9.16-6.83,15.32,1.18.07,1.76.1,2.94.18,2.57.17,4.52-.09,5.85-.8,1.33-.71,2.59-2.27,3.79-4.68,1.89.18,2.83.27,4.71.48-3.32,6.65-4.92,9.99-7.97,16.71-1.79-.16-2.68-.23-4.47-.36.73-1.46,1.15-2.8,1.24-4,.09-1.23-.37-2.16-1.4-2.79-1.03-.63-2.28-.99-3.76-1.07-.98-.06-1.47-.09-2.45-.14v-.02Z"/>
        <path class="st3" d="M193.97,43.91c1.46.27,2.19.4,3.65.69-4.21,5.19-8.88,7.33-14.3,6.51-2.19-.33-3.78-.97-4.78-1.95s-1.41-2.3-1.19-3.95c.12-.96.8-2.6,2.08-4.9,2.34-4.2,3.55-6.3,6.01-10.46.48-.8.74-1.33.78-1.59s0-.45-.13-.59c-.12-.14-.34-.23-.64-.27-1.3-.19-3.03.99-5.13,3.55-1.45-.19-2.17-.28-3.62-.45,3.96-5.6,9.12-7.98,15.18-6.98,2.14.35,3.73,1.08,4.75,2.15s1.39,2.37,1.11,3.88c-.21,1.11-1.05,2.76-2.51,4.98-2.46,3.72-3.67,5.59-6.02,9.35-.84,1.33-1.28,2.18-1.34,2.54-.04.23,0,.43.14.58.13.15.34.25.63.3.62.1,1.49-.24,2.63-1.03,1.14-.79,2.04-1.57,2.71-2.35h0ZM206.42,13.75c-.28,1.36-1.12,2.4-2.53,3.13-1.4.74-2.94.95-4.62.64-1.68-.31-3.04-1.05-4.09-2.24-1.05-1.19-1.47-2.46-1.25-3.82.23-1.39,1.04-2.46,2.44-3.22,1.41-.76,2.98-.98,4.72-.66,1.73.32,3.13,1.09,4.18,2.3s1.42,2.51,1.14,3.88h0Z"/>
        <path class="st3" d="M199.2,47.03c.21-1.06.79-1.93,1.75-2.6s2.19-.85,3.69-.53c2.71.59,4.01,2.5,3.83,5.62-.13,2.31,1.3,3.83,4.35,4.6,1.68.43,3.09.48,4.24.14s1.84-.96,2.09-1.85c.16-.58.03-1.18-.38-1.8-.42-.62-1.57-1.86-3.5-3.69-2.95-2.74-4.91-4.85-5.78-6.4-.87-1.54-1.11-3.22-.7-5.03.56-2.47,2.39-4.17,5.55-5.03,3.16-.87,7.38-.63,12.56.82,4.35,1.22,7.35,2.7,9,4.31,1.65,1.62,2.22,3.17,1.74,4.65-.34,1.05-1.09,1.76-2.23,2.13-1.14.37-2.28.38-3.43.03-2.52-.77-3.65-2.36-3.43-4.82.17-1.88-1.11-3.23-3.84-3.99-1.63-.45-2.93-.52-3.89-.24-.96.28-1.57.93-1.83,1.94-.16.61-.02,1.22.42,1.83.43.62,1.56,1.71,3.34,3.3,3.16,2.8,5.03,5.13,5.69,6.94.66,1.8.77,3.41.33,4.81-.77,2.52-2.76,4.18-5.91,5.05s-7.11.64-11.98-.57c-3.87-.97-6.88-2.23-9.06-3.87s-3.07-3.54-2.62-5.75h0Z"/>
        <path class="st3" d="M233.26,62.07c7.95-10.44,16.33-20.55,25.1-30.31.61-.69.99-1.22,1.13-1.58.41-1.07-.96-2.22-4.14-3.38,1.01-1.07,1.51-1.6,2.53-2.66,4.09,1.52,6.86,2.57,8.36,3.07s3.38.99,5.65,1.5c1.47.62,2.2.93,3.67,1.57-7.89,7.88-11.71,11.92-19.06,20.15,6.67-3.55,12.9-4.05,18.29-1.57,2.01.92,3.33,2.01,3.97,3.24.64,1.23.67,2.42.11,3.56-.26.54-.71,1.16-1.35,1.83-.63.68-3.75,3.69-9.11,9.21-1.38,1.41-2.12,2.25-2.23,2.5-.24.53-.09.92.47,1.19.54.25,1.27.26,2.2.03.93-.23,2.07-.69,3.41-1.39,1.57.76,2.36,1.15,3.92,1.93-2.62,1.69-5.4,2.69-8.35,3.03s-5.72-.07-8.36-1.24c-3.89-1.72-5.26-3.94-4.07-6.77.48-1.14,2.7-3.86,6.81-8.07,2.26-2.3,3.55-3.74,3.82-4.35.37-.85.08-1.49-.88-1.9-1.53-.66-4.07-.09-7.52,1.77-3.45,1.86-6.84,4.32-10.14,7.36-1.65,1.94-2.46,2.91-4.08,4.87-4.04-1.51-6.07-2.23-10.14-3.59h-.01Z"/>
      </g>
    </g>
  </g>
</svg>